# xmcd
#
# Track frame offsets:
#	150
#	14797
#	39012
#	56857
#	75375
#	94162
#	115525
#	132042
#	150250
#	167790
#
# Disc length: 2501 seconds
#
# Revision: 1
# Processed by: cddbd v1.5PL3 Copyright (c) Steve Scherf et al.
# Submitted via: CDex 1.50Beta5
#
DISCID=6c09c30a
DTITLE=HITOE - I'll Do It My Way
DYEAR=1900
DGENRE=R&B
TTITLE0=Deja Vu
TTITLE1=I'll be there (Album Edit)
TTITLE2=I Got You
TTITLE3=I'll Do It My Way
TTITLE4=You Gotta Know Me to Love Me (Cobra's Groove Mix)
TTITLE5=INORI (STC 22'' dub Version)
TTITLE6=Just Wanna Let You Know
TTITLE7='Cause I really need your love
TTITLE8=Dance With Me
TTITLE9=Regrow
EXTD=
EXTT0=
EXTT1=
EXTT2=
EXTT3=
EXTT4=
EXTT5=
EXTT6=
EXTT7=
EXTT8=
EXTT9=
PLAYORDER=
